<?xml version="1.0" encoding="iso-8859-1"?>
<!-- Uploaded to: SVG Repo, www.svgrepo.com, Generator: SVG Repo Mixer Tools -->
<svg height="800px" width="800px" version="1.1" id="Layer_1" xmlns="http://www.w3.org/2000/svg" xmlns:xlink="http://www.w3.org/1999/xlink" 
	 viewBox="0 0 498.846 498.846" xml:space="preserve">
<polygon style="fill:#FF6EB0;" points="386.273,19.692 112.566,19.692 164.215,109.119 334.64,109.119 "/>
<path style="fill:#A544A2;" d="M334.64,128.811H164.215c-7.034,0-13.54-3.757-17.054-9.846L95.513,29.538
	C92,23.45,92,15.935,95.513,9.846S105.524,0,112.566,0h273.707c7.042,0,13.54,3.757,17.046,9.846c3.521,6.089,3.521,13.603,0,19.692
	l-51.625,89.435C348.181,125.062,341.682,128.811,334.64,128.811z M175.582,89.427h147.692l28.893-50.05H146.681L175.582,89.427z"/>
<polygon style="fill:#73FFFF;" points="334.64,109.119 164.215,109.119 249.428,256.725 "/>
<polygon style="fill:#11E9EF;" points="334.64,109.119 242.984,109.119 249.428,256.725 "/>
<path style="fill:#A544A2;" d="M249.428,276.417c-7.042,0-13.54-3.757-17.061-9.846l-85.205-147.606
	c-3.513-6.089-3.513-13.603,0-19.692c3.513-6.089,10.012-9.846,17.054-9.846h170.433c7.042,0,13.54,3.757,17.054,9.846
	c3.513,6.089,3.513,13.603,0,19.692l-85.22,147.606C262.968,272.66,256.47,276.417,249.428,276.417z M198.322,128.811l51.105,88.521
	l51.105-88.521H198.322z"/>
<polygon style="fill:#FF6EB0;" points="112.566,479.153 386.273,479.153 334.64,389.727 164.215,389.727 "/>
<path style="fill:#A544A2;" d="M386.273,498.846H112.566c-7.042,0-13.54-3.757-17.054-9.846c-3.513-6.089-3.513-13.603,0-19.692
	l51.649-89.435c3.513-6.089,10.019-9.846,17.054-9.846h170.433c7.042,0,13.54,3.757,17.054,9.846l51.625,89.435
	c3.521,6.089,3.521,13.603,0,19.692C399.814,495.088,393.315,498.846,386.273,498.846z M146.681,459.461h205.485l-28.893-50.05
	H175.582L146.681,459.461z"/>
<polygon style="fill:#73FFFF;" points="164.215,389.727 334.64,389.727 249.412,242.121 "/>
<polygon style="fill:#11E9EF;" points="164.215,389.727 255.871,389.727 249.412,242.121 "/>
<g>
	<path style="fill:#A544A2;" d="M334.64,409.419H164.215c-7.042,0-13.54-3.757-17.054-9.846c-3.513-6.089-3.513-13.603,0-19.692
		l85.197-147.598c3.513-6.089,10.012-9.846,17.054-9.846c7.034,0,13.54,3.757,17.046,9.846l85.236,147.598
		c3.513,6.089,3.513,13.603,0,19.692C348.181,405.662,341.682,409.419,334.64,409.419z M198.322,370.034h102.219l-51.121-88.521
		L198.322,370.034z"/>
	<circle style="fill:#A544A2;" cx="281.416" cy="435.87" r="8.365"/>
	<circle style="fill:#A544A2;" cx="249.42" cy="435.87" r="8.373"/>
	<circle style="fill:#A544A2;" cx="217.416" cy="435.87" r="8.373"/>
</g>
</svg>